<mxfile host="Electron" modified="2025-03-21T22:57:22.664Z" agent="Mozilla/5.0 (Windows NT 10.0; Win64; x64) AppleWebKit/537.36 (KHTML, like Gecko) draw.io/21.6.8 Chrome/114.0.5735.289 Electron/25.5.0 Safari/537.36" etag="vENdGFU1EVMxPIu9sTAs" version="21.6.8" type="device">
  <diagram name="Page-1" id="Yc_QjgURDakJ7rz4LRrg">
    <mxGraphModel dx="1338" dy="820" grid="1" gridSize="10" guides="1" tooltips="1" connect="1" arrows="1" fold="1" page="1" pageScale="1" pageWidth="850" pageHeight="1100" math="0" shadow="0">
      <root>
        <mxCell id="0" />
        <mxCell id="1" parent="0" />
        <mxCell id="pPB23zzgQK4T9X7IG6Va-2" value="Order" style="swimlane;fontStyle=1;align=center;verticalAlign=top;childLayout=stackLayout;horizontal=1;startSize=24.6875;horizontalStack=0;resizeParent=1;resizeParentMax=0;resizeLast=0;collapsible=0;marginBottom=0;" vertex="1" parent="1">
          <mxGeometry x="20" y="270" width="1070" height="407.6875" as="geometry" />
        </mxCell>
        <mxCell id="pPB23zzgQK4T9X7IG6Va-3" value="+Long Id" style="text;strokeColor=none;fillColor=none;align=left;verticalAlign=top;spacingLeft=4;spacingRight=4;overflow=hidden;rotatable=0;points=[[0,0.5],[1,0.5]];portConstraint=eastwest;" vertex="1" parent="pPB23zzgQK4T9X7IG6Va-2">
          <mxGeometry y="24.6875" width="1070" height="25" as="geometry" />
        </mxCell>
        <mxCell id="pPB23zzgQK4T9X7IG6Va-4" value="+String orderId" style="text;strokeColor=none;fillColor=none;align=left;verticalAlign=top;spacingLeft=4;spacingRight=4;overflow=hidden;rotatable=0;points=[[0,0.5],[1,0.5]];portConstraint=eastwest;" vertex="1" parent="pPB23zzgQK4T9X7IG6Va-2">
          <mxGeometry y="49.6875" width="1070" height="25" as="geometry" />
        </mxCell>
        <mxCell id="pPB23zzgQK4T9X7IG6Va-5" value="+String paymentId" style="text;strokeColor=none;fillColor=none;align=left;verticalAlign=top;spacingLeft=4;spacingRight=4;overflow=hidden;rotatable=0;points=[[0,0.5],[1,0.5]];portConstraint=eastwest;" vertex="1" parent="pPB23zzgQK4T9X7IG6Va-2">
          <mxGeometry y="74.6875" width="1070" height="25" as="geometry" />
        </mxCell>
        <mxCell id="pPB23zzgQK4T9X7IG6Va-6" value="+String refundId" style="text;strokeColor=none;fillColor=none;align=left;verticalAlign=top;spacingLeft=4;spacingRight=4;overflow=hidden;rotatable=0;points=[[0,0.5],[1,0.5]];portConstraint=eastwest;" vertex="1" parent="pPB23zzgQK4T9X7IG6Va-2">
          <mxGeometry y="99.6875" width="1070" height="25" as="geometry" />
        </mxCell>
        <mxCell id="pPB23zzgQK4T9X7IG6Va-7" value="+String status" style="text;strokeColor=none;fillColor=none;align=left;verticalAlign=top;spacingLeft=4;spacingRight=4;overflow=hidden;rotatable=0;points=[[0,0.5],[1,0.5]];portConstraint=eastwest;" vertex="1" parent="pPB23zzgQK4T9X7IG6Va-2">
          <mxGeometry y="124.6875" width="1070" height="25" as="geometry" />
        </mxCell>
        <mxCell id="pPB23zzgQK4T9X7IG6Va-8" value="+Double amount" style="text;strokeColor=none;fillColor=none;align=left;verticalAlign=top;spacingLeft=4;spacingRight=4;overflow=hidden;rotatable=0;points=[[0,0.5],[1,0.5]];portConstraint=eastwest;" vertex="1" parent="pPB23zzgQK4T9X7IG6Va-2">
          <mxGeometry y="149.6875" width="1070" height="25" as="geometry" />
        </mxCell>
        <mxCell id="pPB23zzgQK4T9X7IG6Va-9" value="+String currency" style="text;strokeColor=none;fillColor=none;align=left;verticalAlign=top;spacingLeft=4;spacingRight=4;overflow=hidden;rotatable=0;points=[[0,0.5],[1,0.5]];portConstraint=eastwest;" vertex="1" parent="pPB23zzgQK4T9X7IG6Va-2">
          <mxGeometry y="174.6875" width="1070" height="25" as="geometry" />
        </mxCell>
        <mxCell id="pPB23zzgQK4T9X7IG6Va-10" value="+String invoiceNumber" style="text;strokeColor=none;fillColor=none;align=left;verticalAlign=top;spacingLeft=4;spacingRight=4;overflow=hidden;rotatable=0;points=[[0,0.5],[1,0.5]];portConstraint=eastwest;" vertex="1" parent="pPB23zzgQK4T9X7IG6Va-2">
          <mxGeometry y="199.6875" width="1070" height="25" as="geometry" />
        </mxCell>
        <mxCell id="pPB23zzgQK4T9X7IG6Va-11" style="line;strokeWidth=1;fillColor=none;align=left;verticalAlign=middle;spacingTop=-1;spacingLeft=3;spacingRight=3;rotatable=0;labelPosition=right;points=[];portConstraint=eastwest;strokeColor=inherit;" vertex="1" parent="pPB23zzgQK4T9X7IG6Va-2">
          <mxGeometry y="224.6875" width="1070" height="8" as="geometry" />
        </mxCell>
        <mxCell id="pPB23zzgQK4T9X7IG6Va-12" value="+createPaymentLink(Double amount, String currency, String invoiceNumber)" style="text;strokeColor=none;fillColor=none;align=left;verticalAlign=top;spacingLeft=4;spacingRight=4;overflow=hidden;rotatable=0;points=[[0,0.5],[1,0.5]];portConstraint=eastwest;" vertex="1" parent="pPB23zzgQK4T9X7IG6Va-2">
          <mxGeometry y="232.6875" width="1070" height="25" as="geometry" />
        </mxCell>
        <mxCell id="pPB23zzgQK4T9X7IG6Va-13" value="+getPaymentDetails(String orderId)" style="text;strokeColor=none;fillColor=none;align=left;verticalAlign=top;spacingLeft=4;spacingRight=4;overflow=hidden;rotatable=0;points=[[0,0.5],[1,0.5]];portConstraint=eastwest;" vertex="1" parent="pPB23zzgQK4T9X7IG6Va-2">
          <mxGeometry y="257.6875" width="1070" height="25" as="geometry" />
        </mxCell>
        <mxCell id="pPB23zzgQK4T9X7IG6Va-14" value="+fetchPaymentStatus_Razorpay(String paymentId)" style="text;strokeColor=none;fillColor=none;align=left;verticalAlign=top;spacingLeft=4;spacingRight=4;overflow=hidden;rotatable=0;points=[[0,0.5],[1,0.5]];portConstraint=eastwest;" vertex="1" parent="pPB23zzgQK4T9X7IG6Va-2">
          <mxGeometry y="282.6875" width="1070" height="25" as="geometry" />
        </mxCell>
        <mxCell id="pPB23zzgQK4T9X7IG6Va-15" value="+verifySignature(String razorpay_payment_id, String razorpay_payment_link_id, String razorpay_payment_link_reference_id, String razorpay_payment_link_status, String razorpay_signature)" style="text;strokeColor=none;fillColor=none;align=left;verticalAlign=top;spacingLeft=4;spacingRight=4;overflow=hidden;rotatable=0;points=[[0,0.5],[1,0.5]];portConstraint=eastwest;" vertex="1" parent="pPB23zzgQK4T9X7IG6Va-2">
          <mxGeometry y="307.6875" width="1070" height="25" as="geometry" />
        </mxCell>
        <mxCell id="pPB23zzgQK4T9X7IG6Va-16" value="+updatePaymentDetails(String razorpay_payment_id, String razorpay_payment_link_id, String razorpay_payment_link_reference_id, String razorpay_payment_link_status, String razorpay_signature)" style="text;strokeColor=none;fillColor=none;align=left;verticalAlign=top;spacingLeft=4;spacingRight=4;overflow=hidden;rotatable=0;points=[[0,0.5],[1,0.5]];portConstraint=eastwest;" vertex="1" parent="pPB23zzgQK4T9X7IG6Va-2">
          <mxGeometry y="332.6875" width="1070" height="25" as="geometry" />
        </mxCell>
        <mxCell id="pPB23zzgQK4T9X7IG6Va-17" value="+createRefund(String orderId)" style="text;strokeColor=none;fillColor=none;align=left;verticalAlign=top;spacingLeft=4;spacingRight=4;overflow=hidden;rotatable=0;points=[[0,0.5],[1,0.5]];portConstraint=eastwest;" vertex="1" parent="pPB23zzgQK4T9X7IG6Va-2">
          <mxGeometry y="357.6875" width="1070" height="25" as="geometry" />
        </mxCell>
        <mxCell id="pPB23zzgQK4T9X7IG6Va-18" value="+fetchRefundStatus(String refundId)" style="text;strokeColor=none;fillColor=none;align=left;verticalAlign=top;spacingLeft=4;spacingRight=4;overflow=hidden;rotatable=0;points=[[0,0.5],[1,0.5]];portConstraint=eastwest;" vertex="1" parent="pPB23zzgQK4T9X7IG6Va-2">
          <mxGeometry y="382.6875" width="1070" height="25" as="geometry" />
        </mxCell>
      </root>
    </mxGraphModel>
  </diagram>
</mxfile>
